<svg xmlns="http://www.w3.org/2000/svg" id="icon" viewBox="0 0 256 256"><path fill="none" d="M0 0h256v256H0z"/><path fill="none" stroke="currentColor" stroke-linecap="round" stroke-linejoin="round" stroke-width="16" d="M128 192a24 24 0 0 1 24-24h46.21a24 24 0 0 0 23.4-18.65 96.48 96.48 0 0 0 2.39-22.18c-.45-52.82-44.16-95.7-97-95.17a96 96 0 0 0-95 96c0 41.81 26.73 73.44 64 86.61A24 24 0 0 0 128 192Z"/><circle cx="128" cy="76" r="12" fill="currentColor" /><circle cx="84" cy="100" r="12" fill="currentColor" /><circle cx="84" cy="156" r="12" fill="currentColor" /><circle cx="172" cy="100" r="12" fill="currentColor" /></svg>